Coordinates
version=1
nRows=14
nColumns=41
inDegrees=yes

Units are S.I. units (second, meters, Newtons, ...)
If the header above contains a line with 'inDegrees', this indicates whether rotational values are in degrees (yes) or radians (no).

endheader
time	pelvis_tilt	pelvis_list	pelvis_rotation	pelvis_tx	pelvis_ty	pelvis_tz	hip_flexion_r	hip_adduction_r	hip_rotation_r	knee_angle_r	ankle_angle_r	subtalar_angle_r	mtp_angle_r	hip_flexion_l	hip_adduction_l	hip_rotation_l	knee_angle_l	ankle_angle_l	subtalar_angle_l	mtp_angle_l	L5_S1_Flex_Ext	L5_S1_Lat_Bending	L5_S1_axial_rotation	neck_flexion	neck_bending	neck_rotation	arm_flex_r	arm_add_r	arm_rot_r	elbow_flex_r	pro_sup_r	wrist_flex_r	wrist_dev_r	arm_flex_l	arm_add_l	arm_rot_l	elbow_flex_l	pro_sup_l	wrist_flex_l	wrist_dev_l
      8.80000000	     -2.22866890	      3.13255809	    -83.89407834	      0.14298100	      1.06938262	      0.04389391	     -0.52974253	      0.77980178	     -0.14422489	      0.00000000	      5.11303246	    -10.29029615	      0.00000000	     -0.71759289	     -3.00202096	     -1.55471981	      0.00000000	     11.62515454	      0.73379470	      0.00000000	     -0.00867832	      1.03267898	      1.83561742	      0.00000000	      0.00000000	      0.00000002	     21.30464343	    -17.12653409	    -38.58257664	    150.00035077	     61.61948217	      0.00000000	      0.00000000	     22.82349665	    -13.45307372	    -27.95585287	    150.00035077	     75.86001896	      0.00000000	      0.00000000
      8.82000000	     -2.18342115	      3.09976801	    -83.87750772	      0.14297566	      1.06961899	      0.04453288	     -0.60029926	      0.74908449	     -0.08466420	      0.00000000	      4.76207116	    -10.60508418	      0.00000000	     -0.75844802	     -2.97802008	     -1.20300645	      0.00000000	     11.19684326	      0.11484065	      0.00000000	     -0.00340514	      0.83953364	      2.14367152	      0.00000000	      0.00000000	      0.00000002	     21.53895070	    -16.90188686	    -41.15031919	    150.00035077	     62.05841920	      0.00000000	      0.00000000	     22.86158387	    -13.22519356	    -28.54744371	    150.00035077	     75.92476450	      0.00000000	      0.00000000
      8.84000000	     -2.12603322	      2.92007914	    -83.83925127	      0.14296933	      1.06997845	      0.04547061	     -0.84881176	      0.71515375	     -0.16769617	      0.00000000	      4.68304195	    -10.61916307	      0.00000000	     -0.98824369	     -2.95224674	     -1.23158259	      0.00000000	     11.16292351	      0.06674301	      0.00000000	     -0.00213017	      0.66256649	      2.24401082	      0.00000000	      0.00000000	      0.00000002	     21.68492889	    -17.10960996	    -41.26281411	    150.00035077	     62.09842523	      0.00000000	      0.00000000	     22.95580690	    -13.25032070	    -28.60271891	    150.00035077	     75.93235608	      0.00000000	      0.00000000
      8.86000000	     -2.06474325	      2.75521354	    -83.77307843	      0.14298219	      1.07026351	      0.04644523	     -1.08456415	      0.66192623	     -0.24469540	      0.00000000	      4.57197376	    -10.61943838	      0.00000000	     -1.20910492	     -2.90396647	     -1.21970708	      0.00000000	     11.09986883	      0.00958453	      0.00000000	     -0.00003143	      0.55044507	      2.39892300	      0.00000000	      0.00000000	      0.00000002	     22.04796263	    -17.38071205	    -41.48315399	    150.00035077	     62.15233790	      0.00000000	      0.00000000	     23.21894149	    -13.33489519	    -28.74378162	    150.00035077	     75.93975082	      0.00000000	      0.00000000
      8.88000000	     -2.04247878	      2.62086118	    -83.70395177	      0.14278338	      1.07047309	      0.04722608	     -1.28376835	      0.65089499	     -0.33621545	      0.00000000	      4.48171139	    -10.63969087	      0.00000000	     -1.39831741	     -2.89075844	     -1.25212019	      0.00000000	     11.06637261	     -0.10199804	      0.00000000	      0.00010729	      0.43422046	      2.49172251	      0.00000000	      0.00000000	      0.00000002	     22.49312900	    -17.65973938	    -41.75765621	    150.00035077	     62.21065531	      0.00000000	      0.00000000	     23.61352810	    -13.45524042	    -28.94241607	    150.00035077	     75.94171143	      0.00000000	      0.00000000
      8.90000000	     -2.04467026	      2.59398051	    -83.54339997	      0.14262098	      1.07060447	      0.04758700	     -1.37518526	      0.65750731	     -0.33697291	      0.00000000	      4.45148743	    -10.63501358	      0.00000000	     -1.44250617	     -2.89503785	     -1.29245892	      0.00000000	     11.06505480	     -0.15214031	      0.00000000	      0.00116161	      0.37918690	      2.55787170	      0.00000000	      0.00000000	      0.00000002	     22.64645400	    -17.73204401	    -41.82929829	    150.00035077	     62.22699238	      0.00000000	      0.00000000	     23.73635792	    -13.51018749	    -29.01201238	    150.00035077	     75.94009926	      0.00000000	      0.00000000
      8.92000000	     -2.00663704	      2.50443017	    -83.49422614	      0.14233123	      1.07067574	      0.04764051	     -1.50496669	      0.62983608	     -0.47526180	      0.00000000	      4.35501031	    -10.70541751	      0.00000000	     -1.57549645	     -2.86136281	     -1.21294525	      0.00000000	     10.99114127	     -0.35037394	      0.00000000	      0.00479172	      0.25811007	      2.61122502	      0.00000000	      0.00000000	      0.00000002	     23.55506099	    -18.11374318	    -42.35627315	    150.00035077	     62.36369415	      0.00000000	      0.00000000	     24.65536579	    -13.71524073	    -29.46682895	    150.00035077	     75.91132491	      0.00000000	      0.00000000
      8.94000000	     -1.98662473	      2.32122645	    -83.39389897	      0.14212012	      1.07091733	      0.04788547	     -1.74965364	      0.64178202	     -0.55591860	      0.00000000	      4.34608178	    -10.75782056	      0.00000000	     -1.80365942	     -2.87042981	     -1.26929792	      0.00000000	     10.94378163	     -0.46052708	      0.00000000	      0.00691730	      0.14443864	      2.65297828	      0.00000000	      0.00000000	      0.00000002	     23.86447645	    -18.27132743	    -42.50974425	    150.00035077	     62.41874713	      0.00000000	      0.00000000	     24.87813091	    -13.82063005	    -29.62189434	    150.00035077	     75.89241087	      0.00000000	      0.00000000
      8.96000000	     -1.95957233	      2.23034276	    -83.25710025	      0.14201916	      1.07103781	      0.04787006	     -1.87110634	      0.63886114	     -0.57832792	      0.00000000	      4.37092063	    -10.77578020	      0.00000000	     -1.91729694	     -2.86379609	     -1.25359963	      0.00000000	     10.87616485	     -0.55100576	      0.00000000	      0.00532678	      0.04509456	      2.76820464	      0.00000000	      0.00000000	      0.00000002	     24.49279673	    -18.48426902	    -42.62488876	    150.00035077	     62.49777468	      0.00000000	      0.00000000	     25.23958899	    -13.97161914	    -29.77409694	    150.00035077	     75.85558975	      0.00000000	      0.00000000
      8.98000000	     -1.98916517	      2.20857343	    -83.08611497	      0.14191750	      1.07128509	      0.04775834	     -1.90732816	      0.69386147	     -0.55358138	      0.00000000	      4.36829621	    -10.76132272	      0.00000000	     -1.93471421	     -2.93106982	     -1.27855945	      0.00000000	     10.87049815	     -0.57324578	      0.00000000	      0.02101723	     -0.08281324	      2.87193476	      0.00000000	      0.00000000	      0.00000002	     24.61247551	    -18.51056946	    -42.61565272	    150.00035077	     62.50675123	      0.00000000	      0.00000000	     25.23981559	    -14.00357374	    -29.79734392	    150.00035077	     75.85000793	      0.00000000	      0.00000000
      9.00000000	     -1.95852661	      2.04870366	    -83.03313828	      0.14192057	      1.07173756	      0.04736986	     -2.06721379	      0.68405691	     -0.57050748	      0.00000000	      4.44053483	    -10.74626667	      0.00000000	     -2.12294772	     -2.93255915	     -1.24068692	      0.00000000	     10.75838390	     -0.61487730	      0.00000000	      0.00455393	     -0.12635152	      3.11656645	      0.00000000	      0.00000000	      0.00000002	     25.63833624	    -18.91385752	    -42.58951676	    150.00035077	     62.57521089	      0.00000000	      0.00000000	     25.47925211	    -14.21360160	    -29.81710635	    150.00035077	     75.80082928	      0.00000000	      0.00000000
      9.02000000	     -1.99602680	      2.04034117	    -82.90203927	      0.14187455	      1.07197282	      0.04678666	     -2.05746861	      0.74224157	     -0.53477914	      0.00000000	      4.44087608	    -10.72219708	      0.00000000	     -2.11310360	     -3.00154956	     -1.26830585	      0.00000000	     10.76228109	     -0.63914248	      0.00000000	      0.00919629	     -0.24126915	      3.19329459	      0.00000000	      0.00000000	      0.00000002	     25.75935782	    -18.94593418	    -42.55972245	    150.00035077	     62.58391645	      0.00000000	      0.00000000	     25.46513839	    -14.23562478	    -29.81801961	    150.00035077	     75.79333570	      0.00000000	      0.00000000
      9.04000000	     -2.02063320	      2.08281251	    -82.96913494	      0.14179044	      1.07187058	      0.04574960	     -1.94976897	      0.74647625	     -0.41651755	      0.00000000	      4.52147980	    -10.60690717	      0.00000000	     -2.04344977	     -3.02060263	     -1.30199636	      0.00000000	     10.73621255	     -0.72365564	      0.00000000	      0.00937563	     -0.18266424	      3.31514421	      0.00000000	      0.00000000	      0.00000002	     26.88689601	    -19.43324615	    -42.30576587	    150.00035077	     62.65444319	      0.00000000	      0.00000000	     25.64688375	    -14.45068343	    -29.64300831	    150.00035077	     75.71977515	      0.00000000	      0.00000000
      9.06000000	     -2.02221895	      2.06359190	    -82.96887549	      0.14177839	      1.07195147	      0.04509314	     -1.93660568	      0.74614324	     -0.41403515	      0.00000000	      4.52255841	    -10.60480062	      0.00000000	     -2.03377829	     -3.03305482	     -1.30401352	      0.00000000	     10.73706849	     -0.72565136	      0.00000000	      0.00660206	     -0.19273855	      3.31593351	      0.00000000	      0.00000000	      0.00000002	     26.89732815	    -19.43719013	    -42.29951169	    150.00035077	     62.65546575	      0.00000000	      0.00000000	     25.64713853	    -14.45265164	    -29.64032860	    150.00035077	     75.71849991	      0.00000000	      0.00000000
